<?xml version="1.0" standalone="no"?>
<!DOCTYPE svg PUBLIC "-//W3C//DTD SVG 20010904//EN"
 "http://www.w3.org/TR/2001/REC-SVG-20010904/DTD/svg10.dtd">
<svg version="1.0" xmlns="http://www.w3.org/2000/svg"
 width="250.000000pt" height="250.000000pt" viewBox="0 0 250.000000 250.000000"
 preserveAspectRatio="xMidYMid meet">

<g transform="translate(0.000000,250.000000) scale(0.100000,-0.100000)"
fill="#000000" stroke="none">
<path d="M0 1250 l0 -1250 1250 0 1250 0 0 1250 0 1250 -1250 0 -1250 0 0
-1250z m1724 429 c8 7 27 11 43 9 39 -4 42 -43 8 -115 -21 -46 -28 -55 -36
-43 -9 13 -10 12 -5 -2 3 -10 -3 -45 -14 -78 -10 -33 -22 -76 -26 -97 -4 -21
-11 -47 -17 -58 -12 -23 -16 -106 -5 -99 11 7 7 -87 -4 -109 -7 -13 -13 -15
-28 -7 -24 13 -30 13 -30 -2 0 -6 3 -9 6 -5 4 3 13 -1 22 -10 14 -14 13 -17
-9 -35 -34 -27 -97 -54 -145 -61 -58 -9 -98 20 -146 108 -21 39 -38 75 -37 80
0 6 7 -3 16 -20 9 -16 19 -32 22 -35 3 -3 16 -26 28 -52 21 -44 40 -58 56 -42
3 4 1 16 -5 28 -11 21 -11 21 10 2 24 -21 57 -15 48 9 -5 13 -2 14 15 4 16 -8
28 -8 45 0 29 13 30 27 7 55 -18 21 -18 21 3 4 31 -27 57 -24 52 6 -5 24 13
42 35 37 5 -1 6 3 3 8 -4 5 0 12 6 14 8 3 6 6 -4 6 -10 1 -18 6 -18 11 0 6
-15 17 -32 25 -28 12 -29 14 -10 15 25 0 29 21 8 39 -8 7 -62 12 -141 13 -138
1 -151 -4 -139 -52 5 -24 5 -24 -10 -5 -14 18 -15 16 -9 -32 7 -64 -4 -135
-18 -111 -5 9 -10 47 -11 85 -2 79 -17 104 -42 70 -15 -20 -15 -19 0 12 l16
34 -74 -7 c-40 -4 -98 -8 -129 -9 -57 -2 -89 -18 -89 -43 0 -8 10 -14 23 -14
22 0 22 0 -3 -13 -13 -7 -30 -24 -37 -37 -7 -14 -13 -19 -13 -11 0 8 -2 12 -5
9 -8 -8 6 -39 15 -33 15 9 41 -7 31 -19 -15 -18 4 -40 28 -33 12 3 19 1 15 -4
-17 -28 49 -52 74 -27 9 9 12 7 12 -10 0 -26 16 -28 40 -7 16 14 17 14 13 -10
-8 -41 24 -31 47 15 11 21 20 44 20 50 0 6 7 18 15 26 22 23 19 11 -20 -66
-36 -71 -52 -82 -79 -55 -8 8 -17 11 -21 6 -3 -5 4 -12 15 -16 31 -10 14 -25
-28 -25 -43 0 -116 26 -157 56 -26 20 -27 23 -13 37 9 9 19 13 23 9 5 -4 5 -1
1 6 -5 8 -13 9 -26 2 -29 -16 -42 11 -42 89 0 39 3 75 7 81 4 6 0 19 -8 28 -8
9 -27 58 -42 107 -16 50 -32 95 -37 101 -4 6 -6 20 -2 30 5 15 4 16 -4 5 -8
-12 -14 -8 -31 20 -30 48 -37 79 -20 91 11 8 10 9 -4 4 -15 -5 -18 -1 -15 17
4 26 50 36 75 15 12 -9 17 -10 20 -2 3 8 16 9 45 3 49 -12 94 -34 90 -45 -2
-5 2 -10 9 -13 7 -2 9 1 4 9 -23 38 133 -79 208 -155 66 -67 74 -72 91 -59 24
17 27 14 32 -28 7 -58 21 -64 123 -49 67 9 99 10 131 1 36 -10 45 -9 61 6 22
20 24 38 6 56 -12 10 -11 15 6 28 14 12 18 23 13 38 -4 12 -12 22 -18 22 -6 0
0 8 12 18 43 35 -2 88 -51 62 -15 -8 -19 -9 -15 -1 10 16 -37 14 -77 -3 -18
-7 -65 -49 -106 -92 -40 -43 -68 -69 -62 -58 17 34 153 175 206 213 37 27 45
29 36 13 -6 -11 -20 -23 -30 -27 -24 -7 -49 -35 -32 -35 17 0 92 71 85 81 -5
8 3 11 22 8 4 0 10 4 13 10 11 18 85 40 93 28 4 -7 11 -7 22 2z m-320 -94
c-10 -8 -23 -15 -28 -15 -6 0 -1 7 10 15 10 8 23 15 28 15 6 0 1 -7 -10 -15z
m-279 -5 c3 -6 -1 -7 -9 -4 -18 7 -21 14 -7 14 6 0 13 -4 16 -10z m36 -27 c13
-16 12 -17 -3 -4 -10 7 -18 15 -18 17 0 8 8 3 21 -13z m209 3 c0 -2 -8 -10
-17 -17 -16 -13 -17 -12 -4 4 13 16 21 21 21 13z m-150 -86 c6 -11 8 -20 6
-20 -3 0 -10 9 -16 20 -6 11 -8 20 -6 20 3 0 10 -9 16 -20z m327 4 c-3 -3 -12
-4 -19 -1 -8 3 -5 6 6 6 11 1 17 -2 13 -5z m-37 -7 c0 -2 -10 -12 -22 -23
l-23 -19 19 23 c18 21 26 27 26 19z m-35 -57 c3 -5 -1 -10 -10 -10 -9 0 -13 5
-10 10 3 6 8 10 10 10 2 0 7 -4 10 -10z m48 -17 c-7 -2 -19 -2 -25 0 -7 3 -2
5 12 5 14 0 19 -2 13 -5z m-120 -130 c-7 -2 -19 -2 -25 0 -7 3 -2 5 12 5 14 0
19 -2 13 -5z m-63 -28 c13 -14 21 -25 18 -25 -2 0 -15 11 -28 25 -13 14 -21
25 -18 25 2 0 15 -11 28 -25z m193 -12 c-7 -2 -19 -2 -25 0 -7 3 -2 5 12 5 14
0 19 -2 13 -5z m-343 -7 c0 -2 -8 -10 -17 -17 -16 -13 -17 -12 -4 4 13 16 21
21 21 13z m288 -61 c4 -3 -6 -2 -21 4 -37 14 -87 41 -87 46 0 5 98 -40 108
-50z m-338 20 c-7 -8 -18 -15 -24 -15 -6 0 -2 7 8 15 25 19 32 19 16 0z m381
-2 c13 -16 12 -17 -3 -4 -17 13 -22 21 -14 21 2 0 10 -8 17 -17z m-487 -18
c-4 -8 -11 -15 -16 -15 -6 0 -5 6 2 15 7 8 14 15 16 15 2 0 1 -7 -2 -15z m179
0 c-3 -9 -8 -14 -10 -11 -3 3 -2 9 2 15 9 16 15 13 8 -4z m-123 -5 c-8 -5 -22
-9 -30 -9 -10 0 -8 3 5 9 27 12 43 12 25 0z"/>
<path d="M1736 1673 c-11 -11 -6 -23 9 -23 8 0 15 4 15 9 0 13 -16 22 -24 14z"/>
<path d="M1667 1654 c-16 -16 -5 -25 26 -22 17 2 31 8 30 13 -3 12 -46 19 -56
9z"/>
<path d="M1775 1650 c-3 -5 -1 -10 4 -10 6 0 11 5 11 10 0 6 -2 10 -4 10 -3 0
-8 -4 -11 -10z"/>
<path d="M1620 1641 c-8 -6 -17 -8 -21 -5 -4 2 -6 -9 -4 -25 3 -23 -1 -31 -18
-36 l-22 -8 22 -4 c12 -2 31 4 42 14 24 20 28 38 6 29 -12 -4 -13 -2 -3 14 7
10 16 16 20 14 4 -3 8 0 8 5 0 13 -10 14 -30 2z"/>
<path d="M750 1632 c0 -4 14 -13 30 -21 26 -11 29 -15 18 -28 -10 -13 -6 -15
28 -13 44 2 84 -8 84 -21 0 -5 12 -9 28 -9 l27 1 -29 15 c-20 11 -25 18 -16
24 9 5 9 9 1 14 -6 4 -9 12 -6 17 3 5 -1 6 -10 3 -9 -4 -14 -13 -10 -21 4 -12
0 -14 -17 -8 -13 3 -29 7 -36 7 -9 1 -9 5 -2 12 19 19 10 28 -25 24 -19 -2
-35 0 -35 4 0 4 -7 8 -15 8 -8 0 -15 -3 -15 -8z"/>
<path d="M1735 1629 c-4 -6 -1 -15 6 -20 12 -8 11 -11 -4 -20 -9 -6 -15 -14
-12 -20 9 -14 25 -11 25 6 0 8 4 15 10 15 13 0 6 43 -7 47 -6 2 -14 -1 -18 -8z"/>
<path d="M1650 1611 c0 -10 40 -19 58 -13 25 8 11 22 -23 22 -19 0 -35 -4 -35
-9z"/>
<path d="M747 1580 c-3 -14 0 -20 11 -20 8 0 12 3 9 7 -4 3 1 12 11 19 16 12
15 13 -4 14 -13 0 -24 -8 -27 -20z"/>
<path d="M1650 1580 c-20 -13 2 -35 35 -35 29 -1 31 7 9 29 -18 18 -23 19 -44
6z"/>
<path d="M989 1560 c13 -11 30 -20 39 -20 13 0 13 3 -3 13 -11 8 -29 17 -40
20 -17 6 -17 4 4 -13z"/>
<path d="M821 1541 c-16 -28 -15 -29 22 -22 36 8 44 34 10 39 -14 2 -26 -4
-32 -17z"/>
<path d="M768 1538 c9 -9 15 -9 24 0 9 9 7 12 -12 12 -19 0 -21 -3 -12 -12z"/>
<path d="M898 1508 c-15 -15 -16 -23 -8 -38 6 -11 18 -20 28 -20 16 -1 16 -1
0 -11 -26 -15 -23 -58 4 -68 14 -5 17 -10 10 -15 -17 -10 -15 -51 3 -66 13
-11 23 -11 55 0 42 14 58 15 163 10 71 -4 90 4 92 40 1 11 0 19 -1 17 -2 -2
-38 30 -81 71 -43 40 -90 80 -105 88 -39 20 -137 15 -160 -8z m107 -48 c3 -6
-4 -10 -17 -10 -18 0 -20 2 -8 10 19 12 18 12 25 0z m40 -30 c10 -11 16 -20
13 -20 -3 0 -13 9 -23 20 -10 11 -16 20 -13 20 3 0 13 -9 23 -20z m29 -38 c2
-4 -7 -9 -22 -10 -21 -1 -24 0 -12 8 18 12 27 12 34 2z m-61 -19 c-7 -2 -19
-2 -25 0 -7 3 -2 5 12 5 14 0 19 -2 13 -5z"/>
<path d="M1654 1519 c-3 -6 -2 -15 4 -21 13 -13 32 -2 32 18 0 16 -26 19 -36
3z"/>
<path d="M832 1483 c4 -21 33 -25 33 -3 0 8 -8 16 -18 18 -14 3 -18 -1 -15
-15z"/>
<path d="M840 1440 c0 -5 7 -10 15 -10 8 0 15 5 15 10 0 6 -7 10 -15 10 -8 0
-15 -4 -15 -10z"/>
<path d="M1647 1433 c-12 -11 -8 -23 8 -23 8 0 15 7 15 15 0 16 -12 20 -23 8z"/>
<path d="M1680 1419 c0 -5 5 -7 10 -4 6 3 10 8 10 11 0 2 -4 4 -10 4 -5 0 -10
-5 -10 -11z"/>
<path d="M830 1401 c0 -5 5 -13 10 -16 6 -3 10 -2 10 4 0 5 -4 13 -10 16 -5 3
-10 2 -10 -4z"/>
<path d="M862 1399 c2 -6 8 -10 13 -10 5 0 11 4 13 10 2 6 -4 11 -13 11 -9 0
-15 -5 -13 -11z"/>
<path d="M1630 1390 c0 -5 5 -10 11 -10 5 0 7 5 4 10 -3 6 -8 10 -11 10 -2 0
-4 -4 -4 -10z"/>
<path d="M880 1360 c0 -5 5 -10 10 -10 6 0 10 5 10 10 0 6 -4 10 -10 10 -5 0
-10 -4 -10 -10z"/>
<path d="M1646 1341 c-4 -5 -2 -12 3 -15 5 -4 12 -2 15 3 4 5 2 12 -3 15 -5 4
-12 2 -15 -3z"/>
<path d="M870 1310 c0 -5 5 -10 10 -10 6 0 10 5 10 10 0 6 -4 10 -10 10 -5 0
-10 -4 -10 -10z"/>
<path d="M1625 1250 c-3 -5 1 -13 10 -16 22 -9 29 1 11 15 -10 8 -16 9 -21 1z"/>
<path d="M886 1215 c-3 -8 -2 -15 3 -15 5 0 14 7 21 15 10 12 10 15 -3 15 -8
0 -17 -7 -21 -15z"/>
<path d="M1630 1204 c0 -8 5 -12 10 -9 6 4 8 11 5 16 -9 14 -15 11 -15 -7z"/>
<path d="M880 1120 c0 -5 5 -10 11 -10 5 0 7 5 4 10 -3 6 -8 10 -11 10 -2 0
-4 -4 -4 -10z"/>
<path d="M1595 1044 c9 -9 19 -13 23 -10 3 4 0 11 -8 16 -24 15 -33 11 -15 -6z"/>
<path d="M1555 1040 c-3 -5 -1 -10 4 -10 6 0 11 5 11 10 0 6 -2 10 -4 10 -3 0
-8 -4 -11 -10z"/>
<path d="M930 1020 c0 -5 5 -10 10 -10 6 0 10 5 10 10 0 6 -4 10 -10 10 -5 0
-10 -4 -10 -10z"/>
<path d="M976 1014 c-8 -21 -8 -24 5 -24 5 0 8 4 5 9 -4 5 -1 11 6 13 8 3 9 6
1 11 -6 4 -14 0 -17 -9z"/>
<path d="M1520 1020 c0 -5 5 -10 11 -10 5 0 7 -4 4 -10 -3 -5 -1 -10 4 -10 13
0 13 3 5 24 -7 18 -24 22 -24 6z"/>
<path d="M1575 1020 c-3 -5 -1 -10 4 -10 6 0 11 5 11 10 0 6 -2 10 -4 10 -3 0
-8 -4 -11 -10z"/>
<path d="M1475 1010 c-3 -5 1 -10 10 -10 9 0 13 -4 10 -10 -3 -5 -1 -10 4 -10
13 0 13 3 5 24 -7 18 -20 21 -29 6z"/>
<path d="M1014 1001 c4 -5 1 -11 -6 -13 -7 -3 -8 -7 -2 -11 5 -3 15 3 22 14
10 16 9 19 -4 19 -8 0 -13 -4 -10 -9z"/>
<path d="M1431 993 c-12 -13 -11 -14 8 -8 14 4 21 2 21 -6 0 -7 2 -10 5 -7 7
6 -5 38 -14 38 -3 -1 -12 -8 -20 -17z"/>
<path d="M1059 991 c9 -6 10 -10 2 -14 -8 -4 -8 -5 1 -3 20 4 21 26 1 26 -14
0 -15 -2 -4 -9z"/>
</g>
</svg>
