<svg xmlns="http://www.w3.org/2000/svg" version="1.1" xmlns:xlink="http://www.w3.org/1999/xlink" xmlns:svgjs="http://svgjs.dev/svgjs" width="100%" height="100%" viewBox="0 0 1000 600"><rect width="1000" height="600" x="0" y="0" fill="#2b2b2b"/><g><rect width="333.3333333333333" height="333.3333333333333" rx="13.333333333333334" ry="13.333333333333334" y="389.679835162528" fill="#ffffff" transform="matrix(0.3401752841078036,0,0,0.3401752841078036,0,110.74466096400043)" x="367.45751953125"/><path d="M525.9357802997513 631.3465188385038Q519.0350539538551 631.3465188385038 509.9881686965557 630.6201265915673L509.9881686965557 630.6201265915673Q506.6533679265293 630.389001785724 501.5686221979742 630.1578769798805Q496.4508586400129 629.9267521740371 490.2765245410531 629.9267521740371L490.2765245410531 629.9267521740371L474.0977881320141 630.1578769798805Q469.80547030920786 630.389001785724 462.2113695457814 630.389001785724L462.2113695457814 630.389001785724Q461.74911993409455 630.389001785724 461.74911993409455 628.9692351212573Q461.74911993409455 627.5494684567906 462.2113695457814 627.5494684567906L462.2113695457814 627.5494684567906Q471.2582548030807 627.5494684567906 475.4185013082622 626.3608265981673Q479.57874781344367 625.172184739544 481.09756796612896 621.7053126518928Q482.6494059482204 618.2714583936478 482.6494059482204 611.1396072419082L482.6494059482204 611.1396072419082L482.6494059482204 501.0581640016306Q482.6494059482204 493.92631284989096 481.2296392837537 490.5915120798645Q479.8098726192871 487.2897291392443 475.6496261141056 485.96901596299625Q471.48937960892414 484.64830278674816 462.4424943516248 484.64830278674816L462.4424943516248 484.64830278674816Q461.980244739938 484.64830278674816 461.980244739938 483.22853612228147Q461.980244739938 481.80876945781483 462.4424943516248 481.80876945781483L462.4424943516248 481.80876945781483L474.3289129378575 482.0398942636582Q484.33331524793675 482.5351617047512 490.2765245410531 482.5351617047512L490.2765245410531 482.5351617047512Q499.29039196894627 482.5351617047512 508.1061524204022 481.80876945781483L508.1061524204022 481.80876945781483Q518.539786512762 481.346519846128 522.6009795297249 481.346519846128L522.6009795297249 481.346519846128Q547.3313337549703 481.346519846128 566.3496034929426 490.85565471511416Q585.3678732309149 500.3647895841003 595.9335786408997 516.7416329695766Q606.4992840508842 533.1514941844589 606.4992840508842 553.589530586898L606.4992840508842 553.589530586898Q606.4992840508842 576.6689933418332 595.7024538350562 594.3665499035576Q584.8726057898219 612.097124294688 566.3496034929426 621.7053126518928Q547.793583366657 631.3465188385038 525.9357802997513 631.3465188385038L525.9357802997513 631.3465188385038ZM523.5584965825047 627.7805932626339Q542.5767663204772 627.7805932626339 557.3027182356432 619.8232963757392Q572.0286701508094 611.8329816594384 580.2501096729536 596.2815840091173Q588.4385313656917 580.6971685293898 588.4385313656917 558.8393654624841L588.4385313656917 558.8393654624841Q588.4385313656917 538.1371864247955 580.6133057964219 521.2650755982263Q572.7550623977457 504.39296477165703 558.260235288423 494.6527050968274Q543.7654081791004 484.91244542199775 524.7471384411281 484.91244542199775L524.7471384411281 484.91244542199775Q514.5116113252054 484.91244542199775 508.93159815555725 486.1010872806211Q503.35158498590914 487.2897291392443 500.71015863341296 490.85565471511416Q498.101750110323 494.42158029098397 498.101750110323 501.5534314427236L498.101750110323 501.5534314427236L498.101750110323 608.5311987188181Q498.101750110323 615.6630498705579 500.1158377041013 619.6912250581145Q502.1629431272858 623.7194002456711 507.742956296934 625.7665056688556Q513.3229694665822 627.7805932626339 523.5584965825047 627.7805932626339L523.5584965825047 627.7805932626339Z " fill="#d8990b" transform="matrix(0.3401752841078036,0,0,0.3401752841078036,0,110.74466096400043)"/><path d="M828.5079289349808 566.2856537304074L830.748902821032 561.8037059583048L890.1347108013904 561.8037059583048L891.6909426667037 566.2856537304074L828.5079289349808 566.2856537304074ZM941.6771101805693 625.235716788478Q942.5797246624511 625.235716788478 942.5797246624511 626.5740761926476Q942.5797246624511 627.912435596817 941.6771101805693 627.912435596817L941.6771101805693 627.912435596817Q937.4130348696108 627.912435596817 928.4491393254057 627.4766906745293L928.4491393254057 627.4766906745293Q919.4852437812006 627.0098211149352 915.4390409313858 627.0098211149352L915.4390409313858 627.0098211149352Q910.5213482369957 627.0098211149352 902.8958120969601 627.4766906745293L902.8958120969601 627.4766906745293Q895.7371455165185 627.912435596817 891.9088151278477 627.912435596817L891.9088151278477 627.912435596817Q891.0373252832721 627.912435596817 891.0373252832721 626.5740761926476Q891.0373252832721 625.235716788478 891.9088151278477 625.235716788478L891.9088151278477 625.235716788478Q900.436965749765 625.235716788478 904.1407975892107 623.6483602858584Q907.8446294286566 622.092128420545 907.8446294286566 618.0459255707302L907.8446294286566 618.0459255707302Q907.8446294286566 614.6844647416533 905.1367859830114 608.6462851042374L905.1367859830114 608.6462851042374L855.3996155675959 503.5383849209721L861.002050282724 496.5975908016744L817.5209319658683 599.4645170988886Q814.3773435979352 607.0589286016178 814.3773435979352 612.0077459333144L814.3773435979352 612.0077459333144Q814.3773435979352 625.235716788478 836.3513375361601 625.235716788478L836.3513375361601 625.235716788478Q837.4718244791857 625.235716788478 837.4718244791857 626.5740761926476Q837.4718244791857 627.912435596817 836.3513375361601 627.912435596817L836.3513375361601 627.912435596817Q832.3051346863454 627.912435596817 824.6795985463098 627.4766906745293L824.6795985463098 627.4766906745293Q816.1825725616987 627.0098211149352 809.8953958258328 627.0098211149352L809.8953958258328 627.0098211149352Q804.0750886495607 627.0098211149352 796.4495525095251 627.4766906745293L796.4495525095251 627.4766906745293Q789.7266308513714 627.912435596817 785.244683079269 627.912435596817L785.244683079269 627.912435596817Q784.1241961362432 627.912435596817 784.1241961362432 626.5740761926476Q784.1241961362432 625.235716788478 785.244683079269 625.235716788478L785.244683079269 625.235716788478Q791.5318598151349 625.235716788478 795.8893090380124 622.8702443532017Q800.2778828981961 620.5047719179254 804.1995871987858 614.5910908297345Q808.1212914993755 608.6462851042374 812.8211117326218 597.4414156739812L812.8211117326218 597.4414156739812L860.0994358008422 485.8284662937059Q860.53518072313 485.17484891027425 861.6556676661555 485.17484891027425Q862.7761546091813 485.17484891027425 863.0251517076313 485.8284662937059L863.0251517076313 485.8284662937059L915.90591049098 597.2235432128373Q923.5314466310153 613.7818502597715 928.8848842476934 619.5087835241247Q934.2694465016777 625.235716788478 941.6771101805693 625.235716788478L941.6771101805693 625.235716788478ZM968.7866692743285 491.89777056842803Q954.905081035733 491.89777056842803 947.8397883672103 499.0564371488696Q940.7744956986876 506.21510372931107 937.6309073307546 523.4892774342895L937.6309073307546 523.4892774342895Q937.6309073307546 523.9250223565773 936.4170464758101 523.9250223565773Q935.1720609835595 523.9250223565773 935.1720609835595 523.4892774342895L935.1720609835595 523.4892774342895Q936.0746754654413 515.4279963719663 937.1951624084668 502.4178979779465Q938.3156493514925 489.40779958392665 938.3156493514925 482.93387502422297L938.3156493514925 482.93387502422297Q938.3156493514925 481.8133880811974 939.529510206437 481.8133880811974Q940.7744956986876 481.8133880811974 940.7744956986876 482.93387502422297L940.7744956986876 482.93387502422297Q940.7744956986876 487.8515677186133 952.8819796108257 487.8515677186133L952.8819796108257 487.8515677186133Q972.1481301034053 488.53630973935117 997.9193297929949 488.53630973935117L997.9193297929949 488.53630973935117Q1011.1473006481585 488.53630973935117 1025.9315033686355 488.0694401797571L1025.9315033686355 488.0694401797571L1041.1825756487065 487.8515677186133Q1049.2438567110298 487.8515677186133 1053.1655610116195 486.73108077558766Q1057.0872653122092 485.610593832562 1058.207752255235 482.2491330034851L1058.207752255235 482.2491330034851Q1058.4256247163787 481.34651852160334 1059.5461116594045 481.34651852160334Q1060.66659860243 481.34651852160334 1060.66659860243 482.2491330034851L1060.66659860243 482.2491330034851Q1059.9818565816922 488.75418220049505 1059.3282391982605 501.9821530556587Q1058.6434971775227 515.1789992735162 1058.6434971775227 523.4892774342895L1058.6434971775227 523.4892774342895Q1058.6434971775227 523.9250223565773 1057.3051377733532 523.9250223565773Q1055.9667783691837 523.9250223565773 1055.9667783691837 523.4892774342895L1055.9667783691837 523.4892774342895Q1055.2820363484457 505.9972312681672 1048.7769871514358 498.93193859964447Q1042.3030625917322 491.89777056842803 1027.269862772805 491.89777056842803L1027.269862772805 491.89777056842803Q1017.1854802855744 491.89777056842803 1012.9214049746156 492.7692604130035Q1008.6884543009633 493.67187489488526 1007.1010977983437 496.5975908016744Q1005.5448659330302 499.49218207115734 1005.5448659330302 506.46410082776123L1005.5448659330302 506.46410082776123L1005.5448659330302 609.7667720472631Q1005.5448659330302 616.7075661665607 1007.1010977983437 619.8511545344937Q1008.6884543009633 622.9947429024268 1013.1704020730658 624.1152298454524Q1017.6523498451684 625.235716788478 1027.269862772805 625.235716788478L1027.269862772805 625.235716788478Q1027.9546047935428 625.235716788478 1027.9546047935428 626.5740761926476Q1027.9546047935428 627.912435596817 1027.269862772805 627.912435596817L1027.269862772805 627.912435596817Q1019.8933237312197 627.912435596817 1015.4113759591171 627.6945631356732L1015.4113759591171 627.6945631356732L997.9193297929949 627.4766906745293L981.1120256476104 627.6945631356732Q976.6300778755078 627.912435596817 968.7866692743285 627.912435596817L968.7866692743285 627.912435596817Q968.3509243520407 627.912435596817 968.3509243520407 626.5740761926476Q968.3509243520407 625.235716788478 968.7866692743285 625.235716788478L968.7866692743285 625.235716788478Q978.4353068392713 625.235716788478 982.9172546113739 624.1152298454524Q987.3992023834762 622.9947429024268 989.0799327980149 619.7266559852687Q990.7606632125533 616.4896937054168 990.7606632125533 609.7667720472631L990.7606632125533 609.7667720472631L990.7606632125533 505.9972312681672Q990.7606632125533 499.0564371488696 989.1733067099335 496.25521979130554Q987.6170748446202 493.4540024337414 983.3529995336617 492.67588650108473Q979.0889242227029 491.89777056842803 968.7866692743285 491.89777056842803L968.7866692743285 491.89777056842803ZM1078.3765172296962 627.912435596817Q1077.9096476701022 627.912435596817 1077.9096476701022 626.5740761926476Q1077.9096476701022 625.235716788478 1078.3765172296962 625.235716788478L1078.3765172296962 625.235716788478Q1086.8735432143073 625.235716788478 1090.795247514897 624.1152298454524Q1094.7169518154867 622.9947429024268 1096.1798097688813 619.7266559852687Q1097.6426677222757 616.4896937054168 1097.6426677222757 609.7667720472631L1097.6426677222757 609.7667720472631L1097.6426677222757 505.9972312681672Q1097.6426677222757 499.27430961001346 1096.1798097688813 496.1307212420804Q1094.7169518154867 493.01825751145367 1090.795247514897 491.773272019203Q1086.8735432143073 490.52828652695223 1078.3765172296962 490.52828652695223L1078.3765172296962 490.52828652695223Q1077.9096476701022 490.52828652695223 1077.9096476701022 489.18992712278276Q1077.9096476701022 487.8515677186133 1078.3765172296962 487.8515677186133L1078.3765172296962 487.8515677186133L1168.4512175940345 487.8515677186133Q1170.4743190189417 487.8515677186133 1170.4743190189417 489.87466914352063L1170.4743190189417 489.87466914352063L1170.9100639412295 517.4199731595675Q1170.9100639412295 518.1047151803052 1169.696203086285 518.2292137295303Q1168.4512175940345 518.3225876414492 1168.4512175940345 517.6689702580175L1168.4512175940345 517.6689702580175Q1167.7976002106027 505.77935880702336 1161.2925510135929 499.18093569809463Q1154.787501816583 492.5513879518596 1144.0183773086144 492.5513879518596L1144.0183773086144 492.5513879518596L1130.354661531163 492.5513879518596Q1122.5112529299836 492.5513879518596 1118.714047178619 493.7963734441104Q1114.885716789948 495.0102342990548 1113.4539834738598 497.93595020584394Q1111.9911255204652 500.8616661126331 1111.9911255204652 507.1177182111928L1111.9911255204652 507.1177182111928L1111.9911255204652 608.8641575653813Q1111.9911255204652 614.9023372027972 1113.4539834738598 617.9525516588114Q1114.885716789948 620.9716414775194 1118.496174717475 622.092128420545Q1122.0755080076958 623.2126153635706 1129.7010441477314 623.2126153635706L1129.7010441477314 623.2126153635706L1147.6288352361414 623.2126153635706Q1158.3668351068038 623.2126153635706 1165.5566263245516 615.587079223535Q1172.715292904993 607.9615430834996 1175.174139252188 594.515699767192L1175.174139252188 594.515699767192Q1175.174139252188 594.0799548449043 1176.0767537340698 594.0799548449043L1176.0767537340698 594.0799548449043Q1176.7614957548078 594.0799548449043 1177.3217392263207 594.4223258552731Q1177.8819826978336 594.7335722283359 1177.8819826978336 594.982569326786L1177.8819826978336 594.982569326786Q1175.858881272926 609.0820300265252 1175.858881272926 624.5509747677402L1175.858881272926 624.5509747677402Q1175.858881272926 626.3562037315037 1175.0807653402694 627.1343196641603Q1174.2715247703063 627.912435596817 1172.2795479827053 627.912435596817L1172.2795479827053 627.912435596817L1078.3765172296962 627.912435596817ZM1159.7051945109733 575.6852941969001Q1159.7051945109733 565.8499088081196 1154.9120003658081 561.585833497161Q1150.0876815833367 557.3217581862023 1138.8828121530803 557.3217581862023L1138.8828121530803 557.3217581862023L1105.2682038623113 557.3217581862023L1105.2682038623113 552.6219379529559L1139.5364295365118 552.6219379529559Q1150.3055540444805 552.6219379529559 1154.9120003658081 549.0426046627351Q1159.4873220498293 545.4321467352081 1159.4873220498293 536.9351207505971L1159.4873220498293 536.9351207505971Q1159.4873220498293 536.4682511910031 1160.8256814539989 536.4682511910031Q1162.1951654954746 536.4682511910031 1162.1951654954746 536.9351207505971L1162.1951654954746 536.9351207505971L1161.9461683970244 555.0807843001511Q1161.9461683970244 561.585833497161 1162.1951654954746 564.9472943262379L1162.1951654954746 564.9472943262379L1162.4130379566186 575.6852941969001Q1162.4130379566186 576.1521637564942 1161.074678552449 576.1521637564942Q1159.7051945109733 576.1521637564942 1159.7051945109733 575.6852941969001L1159.7051945109733 575.6852941969001ZM1230.544869020038 608.8641575653813Q1230.544869020038 615.3692067623913 1231.8832284242076 618.2637980318741Q1233.221587828377 621.1895139386633 1236.800921118598 622.1855023324638Q1240.3802544088187 623.2126153635706 1248.4726601084483 623.2126153635706L1248.4726601084483 623.2126153635706L1272.874375756562 623.2126153635706Q1285.6666016894378 623.2126153635706 1293.2921378294734 615.3692067623913Q1300.8865493322025 607.5257981612118 1303.376520316704 593.6130852853103L1303.376520316704 593.6130852853103Q1303.376520316704 592.9594679018786 1304.5903811716485 593.0528418137974Q1305.835366663899 593.1773403630225 1305.835366663899 593.8620823837604L1305.835366663899 593.8620823837604Q1303.8122652389918 612.443490855602 1303.8122652389918 624.5509747677402L1303.8122652389918 624.5509747677402Q1303.8122652389918 626.3562037315037 1303.1275232182538 627.1343196641603Q1302.4739058348223 627.912435596817 1300.450804409915 627.912435596817L1300.450804409915 627.912435596817L1196.930260729269 627.912435596817Q1196.463391169675 627.912435596817 1196.463391169675 626.5740761926476Q1196.463391169675 625.235716788478 1196.930260729269 625.235716788478L1196.930260729269 625.235716788478Q1205.4272867138802 625.235716788478 1209.34899101447 624.1152298454524Q1213.2706953150596 622.9947429024268 1214.609054719229 619.7266559852687Q1215.9785387607049 616.4896937054168 1215.9785387607049 609.7667720472631L1215.9785387607049 609.7667720472631L1215.9785387607049 505.9972312681672Q1215.9785387607049 499.27430961001346 1214.609054719229 496.1307212420804Q1213.2706953150596 493.01825751145367 1209.34899101447 491.773272019203Q1205.4272867138802 490.52828652695223 1196.930260729269 490.52828652695223L1196.930260729269 490.52828652695223Q1196.463391169675 490.52828652695223 1196.463391169675 489.18992712278276Q1196.463391169675 487.8515677186133 1196.930260729269 487.8515677186133L1196.930260729269 487.8515677186133L1207.8861330610755 488.0694401797571Q1217.3168981648744 488.53630973935117 1223.1372053411465 488.53630973935117L1223.1372053411465 488.53630973935117Q1229.4243820770125 488.53630973935117 1238.8240225435052 488.0694401797571L1238.8240225435052 488.0694401797571L1249.5931470514738 487.8515677186133Q1250.2467644349053 487.8515677186133 1250.2467644349053 489.18992712278276Q1250.2467644349053 490.52828652695223 1249.5931470514738 490.52828652695223L1249.5931470514738 490.52828652695223Q1241.2828688907005 490.52828652695223 1237.267790678192 491.773272019203Q1233.221587828377 493.01825751145367 1231.8832284242076 496.25521979130554Q1230.544869020038 499.49218207115734 1230.544869020038 506.21510372931107L1230.544869020038 506.21510372931107L1230.544869020038 608.8641575653813ZM1353.1136907321195 609.7667720472631Q1353.1136907321195 616.7075661665607 1354.452050136289 619.8511545344937Q1355.7904095404585 622.9947429024268 1359.7121138410482 624.1152298454524Q1363.633818141638 625.235716788478 1372.161968763555 625.235716788478L1372.161968763555 625.235716788478Q1372.8467107842932 625.235716788478 1372.8467107842932 626.5740761926476Q1372.8467107842932 627.912435596817 1372.161968763555 627.912435596817L1372.161968763555 627.912435596817Q1365.4390471054014 627.912435596817 1361.3928442555866 627.6945631356732L1361.3928442555866 627.6945631356732L1345.488154592084 627.4766906745293L1330.019209850869 627.6945631356732Q1326.0041316383604 627.912435596817 1319.0633375190628 627.912435596817L1319.0633375190628 627.912435596817Q1318.378595498325 627.912435596817 1318.378595498325 626.5740761926476Q1318.378595498325 625.235716788478 1319.0633375190628 625.235716788478L1319.0633375190628 625.235716788478Q1327.560363503674 625.235716788478 1331.4820678042636 624.1152298454524Q1335.4037721048533 622.9947429024268 1336.866630058248 619.7266559852687Q1338.3294880116425 616.4896937054168 1338.3294880116425 609.7667720472631L1338.3294880116425 609.7667720472631L1338.3294880116425 505.9972312681672Q1338.3294880116425 499.27430961001346 1336.866630058248 496.1307212420804Q1335.4037721048533 493.01825751145367 1331.4820678042636 491.773272019203Q1327.560363503674 490.52828652695223 1319.0633375190628 490.52828652695223L1319.0633375190628 490.52828652695223Q1318.378595498325 490.52828652695223 1318.378595498325 489.18992712278276Q1318.378595498325 487.8515677186133 1319.0633375190628 487.8515677186133L1319.0633375190628 487.8515677186133L1330.019209850869 488.0694401797571Q1339.449974954668 488.53630973935117 1345.488154592084 488.53630973935117L1345.488154592084 488.53630973935117Q1352.2110762502377 488.53630973935117 1361.6418413540368 488.0694401797571L1361.6418413540368 488.0694401797571L1372.161968763555 487.8515677186133Q1372.8467107842932 487.8515677186133 1372.8467107842932 489.18992712278276Q1372.8467107842932 490.52828652695223 1372.161968763555 490.52828652695223L1372.161968763555 490.52828652695223Q1363.8828152400881 490.52828652695223 1359.8366123902733 491.89777056842803Q1355.7904095404585 493.2361299725975 1354.452050136289 496.47309225244936Q1353.1136907321195 499.74117916960745 1353.1136907321195 506.46410082776123L1353.1136907321195 506.46410082776123L1353.1136907321195 609.7667720472631ZM1392.5486061991605 627.912435596817Q1392.1128612768728 627.912435596817 1392.1128612768728 626.5740761926476Q1392.1128612768728 625.235716788478 1392.5486061991605 625.235716788478L1392.5486061991605 625.235716788478Q1401.0767568210777 625.235716788478 1404.9984611216673 624.1152298454524Q1408.920165422257 622.9947429024268 1410.3830233756516 619.7266559852687Q1411.81475669174 616.4896937054168 1411.81475669174 609.7667720472631L1411.81475669174 609.7667720472631L1411.81475669174 505.9972312681672Q1411.81475669174 499.27430961001346 1410.3830233756516 496.1307212420804Q1408.920165422257 493.01825751145367 1404.9984611216673 491.773272019203Q1401.0767568210777 490.52828652695223 1392.5486061991605 490.52828652695223L1392.5486061991605 490.52828652695223Q1392.1128612768728 490.52828652695223 1392.1128612768728 489.18992712278276Q1392.1128612768728 487.8515677186133 1392.5486061991605 487.8515677186133L1392.5486061991605 487.8515677186133L1482.6544312008048 487.8515677186133Q1484.6464079884058 487.8515677186133 1484.6464079884058 489.87466914352063L1484.6464079884058 489.87466914352063L1485.113277548 517.4199731595675Q1485.113277548 518.1047151803052 1483.8682920557494 518.2292137295303Q1482.6544312008048 518.3225876414492 1482.6544312008048 517.6689702580175L1482.6544312008048 517.6689702580175Q1481.969689180067 505.77935880702336 1475.4646399830572 499.18093569809463Q1468.959590786047 492.5513879518596 1458.221590915385 492.5513879518596L1458.221590915385 492.5513879518596L1444.5578751379335 492.5513879518596Q1436.7144665367541 492.5513879518596 1432.886136148083 493.7963734441104Q1429.0889303967185 495.0102342990548 1427.6260724433241 497.93595020584394Q1426.1632144899295 500.8616661126331 1426.1632144899295 507.1177182111928L1426.1632144899295 507.1177182111928L1426.1632144899295 608.8641575653813Q1426.1632144899295 614.9023372027972 1427.6260724433241 617.9525516588114Q1429.0889303967185 620.9716414775194 1432.6682636869393 622.092128420545Q1436.24759697716 623.2126153635706 1443.8731331171957 623.2126153635706L1443.8731331171957 623.2126153635706L1461.8009242056055 623.2126153635706Q1472.5700487135741 623.2126153635706 1479.7287152940157 615.587079223535Q1486.8873818744573 607.9615430834996 1489.3773528589586 594.515699767192L1489.3773528589586 594.515699767192Q1489.3773528589586 594.0799548449043 1490.2488427035341 594.0799548449043L1490.2488427035341 594.0799548449043Q1490.9335847242721 594.0799548449043 1491.4938281957848 594.4223258552731Q1492.0540716672976 594.7335722283359 1492.0540716672976 594.982569326786L1492.0540716672976 594.982569326786Q1490.0309702423901 609.0820300265252 1490.0309702423901 624.5509747677402L1490.0309702423901 624.5509747677402Q1490.0309702423901 626.3562037315037 1489.2528543097337 627.1343196641603Q1488.4747383770768 627.912435596817 1486.4516369521696 627.912435596817L1486.4516369521696 627.912435596817L1392.5486061991605 627.912435596817ZM1473.9084081177439 575.6852941969001Q1473.9084081177439 565.8499088081196 1469.0840893352722 561.585833497161Q1464.2597705528008 557.3217581862023 1453.0549011225444 557.3217581862023L1453.0549011225444 557.3217581862023L1419.4402928317757 557.3217581862023L1419.4402928317757 552.6219379529559L1453.7396431432824 552.6219379529559Q1464.4776430139448 552.6219379529559 1469.0840893352722 549.0426046627351Q1473.6905356565999 545.4321467352081 1473.6905356565999 536.9351207505971L1473.6905356565999 536.9351207505971Q1473.6905356565999 536.4682511910031 1475.0288950607694 536.4682511910031Q1476.367254464939 536.4682511910031 1476.367254464939 536.9351207505971L1476.367254464939 536.9351207505971L1476.149382003795 555.0807843001511Q1476.149382003795 561.585833497161 1476.367254464939 564.9472943262379L1476.367254464939 564.9472943262379L1476.5851269260827 575.6852941969001Q1476.5851269260827 576.1521637564942 1475.2467675219132 576.1521637564942Q1473.9084081177439 576.1521637564942 1473.9084081177439 575.6852941969001L1473.9084081177439 575.6852941969001ZM1627.415119312255 627.912435596817Q1621.812684597127 627.912435596817 1606.0013688455429 608.7396590161563Q1590.2211777312655 589.5980070728017 1568.0293113318967 555.9833987820329L1568.0293113318967 555.9833987820329L1580.5725401663226 552.155068393362Q1600.0565631200461 580.1672419690027 1613.1911600632907 595.7606852594427Q1626.2946323692295 611.3230039125765 1636.37901485646 618.2637980318741Q1646.4633973436908 625.235716788478 1656.0809102713274 625.235716788478L1656.0809102713274 625.235716788478Q1656.7656522920652 625.235716788478 1656.7656522920652 626.5740761926476Q1656.7656522920652 627.912435596817 1656.0809102713274 627.912435596817L1656.0809102713274 627.912435596817L1627.415119312255 627.912435596817ZM1570.9239026013795 487.16682569787537Q1588.6338212286457 487.16682569787537 1598.2824587935888 495.25923139750495Q1607.8999717212253 503.3205124598282 1607.8999717212253 516.7663557761357L1607.8999717212253 516.7663557761357Q1607.8999717212253 528.6248425898236 1600.9591776019274 538.3979787039916Q1594.01838348263 548.1399901808534 1582.2532705808608 553.8357988079003Q1570.4881576790917 559.5627320722535 1557.0423143627843 559.5627320722535L1557.0423143627843 559.5627320722535Q1555.7039549586148 559.5627320722535 1546.9579318755536 558.8779900515158L1546.9579318755536 558.8779900515158L1546.9579318755536 609.7667720472631Q1546.9579318755536 616.7075661665607 1548.296291279723 619.8511545344937Q1549.6346506838927 622.9947429024268 1553.5563549844824 624.1152298454524Q1557.478059285072 625.235716788478 1566.0062099069892 625.235716788478L1566.0062099069892 625.235716788478Q1566.690951927727 625.235716788478 1566.690951927727 626.5740761926476Q1566.690951927727 627.912435596817 1566.0062099069892 627.912435596817L1566.0062099069892 627.912435596817Q1559.0654157876916 627.912435596817 1555.0192129378768 627.6945631356732L1555.0192129378768 627.6945631356732L1539.5502681966618 627.4766906745293L1524.330320553897 627.6945631356732Q1520.2841177040823 627.912435596817 1512.907578662497 627.912435596817L1512.907578662497 627.912435596817Q1512.440709102903 627.912435596817 1512.440709102903 626.5740761926476Q1512.440709102903 625.235716788478 1512.907578662497 625.235716788478L1512.907578662497 625.235716788478Q1521.404604647108 625.235716788478 1525.4508074969226 623.9907312962273Q1529.4658857094312 622.7457458039767 1531.053242212051 619.6332820733498Q1532.6094740773642 616.4896937054168 1532.6094740773642 609.7667720472631L1532.6094740773642 609.7667720472631L1532.6094740773642 505.9972312681672Q1532.6094740773642 499.27430961001346 1531.1466161239696 496.1307212420804Q1529.7148828078812 493.01825751145367 1525.7931785072917 491.773272019203Q1521.8714742067018 490.52828652695223 1513.3433235847847 490.52828652695223L1513.3433235847847 490.52828652695223Q1512.658581564047 490.52828652695223 1512.658581564047 489.18992712278276Q1512.658581564047 487.8515677186133 1513.3433235847847 487.8515677186133L1513.3433235847847 487.8515677186133L1524.330320553897 488.0694401797571Q1533.72996102039 488.53630973935117 1539.5502681966618 488.53630973935117L1539.5502681966618 488.53630973935117Q1544.4990855283586 488.53630973935117 1548.7631608393172 488.287312640901Q1552.9961115129695 488.0694401797571 1555.9218274197588 487.8515677186133L1555.9218274197588 487.8515677186133Q1564.4499780416759 487.16682569787537 1570.9239026013795 487.16682569787537L1570.9239026013795 487.16682569787537ZM1592.6800240784605 523.2714049731458Q1592.6800240784605 505.77935880702336 1584.9299893891998 498.1538226669878Q1577.2110793372456 490.52828652695223 1562.4268766167686 490.52828652695223L1562.4268766167686 490.52828652695223Q1553.6808535337072 490.52828652695223 1550.3193927046304 493.67187489488526Q1546.9579318755536 496.8154632628183 1546.9579318755536 506.46410082776123L1546.9579318755536 506.46410082776123L1546.9579318755536 553.5245524348377Q1552.342494129538 554.3960422794132 1560.1859027307173 554.3960422794132L1560.1859027307173 554.3960422794132Q1577.6468242595333 554.3960422794132 1585.17898648765 546.8016307766839Q1592.6800240784605 539.1760946366484 1592.6800240784605 523.2714049731458L1592.6800240784605 523.2714049731458ZM1774.4167813097565 628.8150500786987Q1767.9117321127467 628.8150500786987 1759.4147061281355 628.130308057961L1759.4147061281355 628.130308057961Q1756.2711177602025 627.912435596817 1751.4467989777313 627.6945631356732Q1746.6224801952594 627.4766906745293 1740.8021730189876 627.4766906745293L1740.8021730189876 627.4766906745293L1725.5511007389166 627.6945631356732Q1721.536022526408 627.912435596817 1714.3462313086602 627.912435596817L1714.3462313086602 627.912435596817Q1713.9104863863724 627.912435596817 1713.9104863863724 626.5740761926476Q1713.9104863863724 625.235716788478 1714.3462313086602 625.235716788478L1714.3462313086602 625.235716788478Q1722.8743819305773 625.235716788478 1726.7960862311672 624.1152298454524Q1730.717790531757 622.9947429024268 1732.1806484851516 619.7266559852687Q1733.643506438546 616.4896937054168 1733.643506438546 609.7667720472631L1733.643506438546 609.7667720472631L1733.643506438546 505.9972312681672Q1733.643506438546 499.27430961001346 1732.2740223970702 496.1307212420804Q1730.935662992901 493.01825751145367 1727.013958692311 491.773272019203Q1723.0922543917213 490.52828652695223 1714.5952284071104 490.52828652695223L1714.5952284071104 490.52828652695223Q1714.1283588475162 490.52828652695223 1714.1283588475162 489.18992712278276Q1714.1283588475162 487.8515677186133 1714.5952284071104 487.8515677186133L1714.5952284071104 487.8515677186133L1725.8000978373666 488.0694401797571Q1735.1997383038595 488.53630973935117 1740.8021730189876 488.53630973935117L1740.8021730189876 488.53630973935117Q1749.330323640905 488.53630973935117 1757.609477164372 487.8515677186133L1757.609477164372 487.8515677186133Q1767.475987190459 487.41582279632553 1771.2731929418233 487.41582279632553L1771.2731929418233 487.41582279632553Q1794.5855462842178 487.41582279632553 1812.513337372628 496.37971834053053Q1830.4411284610378 505.3436138847356 1840.4010123990433 520.7814339886443Q1850.3920209743555 536.2503787298592 1850.3920209743555 555.5165292224387L1850.3920209743555 555.5165292224387Q1850.3920209743555 577.2726506995198 1840.1831399378998 593.9554562956791Q1830.0053835387503 610.6693865291448 1812.513337372628 619.7266559852687Q1795.0212912065056 628.8150500786987 1774.4167813097565 628.8150500786987L1774.4167813097565 628.8150500786987ZM1772.1758074237055 625.4535892496219Q1790.1035985121155 625.4535892496219 1803.9851867507107 617.9525516588114Q1817.8978996266123 610.4203894306947 1825.6168096785664 595.7606852594427Q1833.366844367827 581.0698564508845 1833.366844367827 560.4653465541353L1833.366844367827 560.4653465541353Q1833.366844367827 540.9501989631055 1825.9591806889357 525.0455092996029Q1818.5515170100439 509.1408196361002 1804.8878012325924 499.95905163075133Q1791.224085455141 490.7772836254024 1773.2962943667308 490.7772836254024L1773.2962943667308 490.7772836254024Q1763.647656801788 490.7772836254024 1758.387593097029 491.89777056842803Q1753.1275293922695 493.01825751145367 1750.6686830450744 496.37971834053053Q1748.2098366978794 499.74117916960745 1748.2098366978794 506.46410082776123L1748.2098366978794 506.46410082776123L1748.2098366978794 607.3079257000679Q1748.2098366978794 614.0308473582218 1750.1084395735616 617.8280531095863Q1752.0070424492437 621.625258860951 1757.2671061540032 623.5549863739395Q1762.5271698587624 625.4535892496219 1772.1758074237055 625.4535892496219L1772.1758074237055 625.4535892496219ZM1957.2740254840778 511.81753844443926Q1962.2228428157746 503.97412984325985 1962.2228428157746 498.6206922265818L1962.2228428157746 498.6206922265818Q1962.2228428157746 490.52828652695223 1950.1153589036367 490.52828652695223L1950.1153589036367 490.52828652695223Q1949.6484893440424 490.52828652695223 1949.6484893440424 489.18992712278276Q1949.6484893440424 487.8515677186133 1950.1153589036367 487.8515677186133L1950.1153589036367 487.8515677186133L1960.635486313155 488.0694401797571Q1969.1636369350722 488.53630973935117 1976.3223035155138 488.53630973935117L1976.3223035155138 488.53630973935117Q1980.1506339041848 488.53630973935117 1985.504071520863 488.0694401797571L1985.504071520863 488.0694401797571L1993.814349681636 487.8515677186133Q1994.2500946039236 487.8515677186133 1994.2500946039236 489.18992712278276Q1994.2500946039236 490.52828652695223 1993.814349681636 490.52828652695223L1993.814349681636 490.52828652695223Q1985.7530686193127 490.52828652695223 1977.4427904585395 496.47309225244936Q1969.1636369350722 502.4178979779465 1962.6585877380626 512.720152926321L1962.6585877380626 512.720152926321L1927.4877475819803 566.7213986526951L1923.6594171933093 563.3599378236182L1957.2740254840778 511.81753844443926ZM1880.8630408971912 507.8024602319307Q1874.5758641613252 498.1538226669878 1868.9734294461973 494.3566169156232Q1863.370994731069 490.52828652695223 1855.9944556894834 490.52828652695223L1855.9944556894834 490.52828652695223Q1855.3097136687456 490.52828652695223 1855.3097136687456 489.18992712278276Q1855.3097136687456 487.8515677186133 1855.9944556894834 487.8515677186133L1855.9944556894834 487.8515677186133Q1858.6711744978224 487.8515677186133 1864.0557367518068 488.287312640901L1864.0557367518068 488.287312640901L1871.8991453529861 488.53630973935117Q1879.524681493022 488.53630973935117 1891.1652958455657 488.0694401797571L1891.1652958455657 488.0694401797571L1903.2727797577036 487.8515677186133Q1903.7085246799916 487.8515677186133 1903.7085246799916 489.18992712278276Q1903.7085246799916 490.52828652695223 1903.2727797577036 490.52828652695223L1903.2727797577036 490.52828652695223Q1891.6321654051599 490.52828652695223 1891.6321654051599 495.25923139750495L1891.6321654051599 495.25923139750495Q1891.6321654051599 497.71807774470005 1893.873139291211 500.612669014183L1893.873139291211 500.612669014183L1932.1875678152264 556.8860132639146L1921.2005708461143 566.9703957511452L1880.8630408971912 507.8024602319307ZM1918.056982478181 558.442245129228L1932.623312737514 556.4191437043205L1932.623312737514 609.7667720472631Q1932.623312737514 616.7075661665607 1933.9616721416837 619.8511545344937Q1935.3311561831592 622.9947429024268 1939.252860483749 624.1152298454524Q1943.174564784339 625.235716788478 1951.67159076895 625.235716788478L1951.67159076895 625.235716788478Q1952.3563327896877 625.235716788478 1952.3563327896877 626.5740761926476Q1952.3563327896877 627.912435596817 1951.67159076895 627.912435596817L1951.67159076895 627.912435596817Q1944.7307966496523 627.912435596817 1940.9335908982875 627.6945631356732L1940.9335908982875 627.6945631356732L1925.2467736959288 627.4766906745293L1909.777828954714 627.6945631356732Q1905.731626104899 627.912435596817 1898.7908319856015 627.912435596817L1898.7908319856015 627.912435596817Q1898.1060899648637 627.912435596817 1898.1060899648637 626.5740761926476Q1898.1060899648637 625.235716788478 1898.7908319856015 625.235716788478L1898.7908319856015 625.235716788478Q1907.3189826075186 625.235716788478 1911.2406869081083 624.1152298454524Q1915.162391208698 622.9947429024268 1916.5941245247864 619.7266559852687Q1918.056982478181 616.4896937054168 1918.056982478181 609.7667720472631L1918.056982478181 609.7667720472631L1918.056982478181 558.442245129228ZM2023.3827551225904 566.2856537304074L2025.6237290086415 561.8037059583048L2085.009536989 561.8037059583048L2086.5968934916195 566.2856537304074L2023.3827551225904 566.2856537304074ZM2136.5519363681788 625.235716788478Q2137.4545508500605 625.235716788478 2137.4545508500605 626.5740761926476Q2137.4545508500605 627.912435596817 2136.5519363681788 627.912435596817L2136.5519363681788 627.912435596817Q2132.28786105722 627.912435596817 2123.3239655130155 627.4766906745293L2123.3239655130155 627.4766906745293Q2114.3600699688104 627.0098211149352 2110.3449917563016 627.0098211149352L2110.3449917563016 627.0098211149352Q2105.3961744246053 627.0098211149352 2097.8017629218757 627.4766906745293L2097.8017629218757 627.4766906745293Q2090.611971704128 627.912435596817 2086.8147659527635 627.912435596817L2086.8147659527635 627.912435596817Q2085.912151470882 627.912435596817 2085.912151470882 626.5740761926476Q2085.912151470882 625.235716788478 2086.8147659527635 625.235716788478L2086.8147659527635 625.235716788478Q2095.3117919373744 625.235716788478 2099.01562377682 623.6483602858584Q2102.7194556162663 622.092128420545 2102.7194556162663 618.0459255707302L2102.7194556162663 618.0459255707302Q2102.7194556162663 614.6844647416533 2100.042736807927 608.6462851042374L2100.042736807927 608.6462851042374L2050.2744417552053 503.5383849209721L2055.8768764703336 496.5975908016744L2012.3957581534778 599.4645170988886Q2009.2832944228508 607.0589286016178 2009.2832944228508 612.0077459333144L2009.2832944228508 612.0077459333144Q2009.2832944228508 625.235716788478 2031.2261637237698 625.235716788478L2031.2261637237698 625.235716788478Q2032.3466506667955 625.235716788478 2032.3466506667955 626.5740761926476Q2032.3466506667955 627.912435596817 2031.2261637237698 627.912435596817L2031.2261637237698 627.912435596817Q2027.211085511261 627.912435596817 2019.5855493712256 627.4766906745293L2019.5855493712256 627.4766906745293Q2011.0573987493085 627.0098211149352 2004.8013466507482 627.0098211149352L2004.8013466507482 627.0098211149352Q1998.9499148371701 627.0098211149352 1991.355503334441 627.4766906745293L1991.355503334441 627.4766906745293Q1984.6325816762874 627.912435596817 1980.1506339041848 627.912435596817L1980.1506339041848 627.912435596817Q1979.030146961159 627.912435596817 1979.030146961159 626.5740761926476Q1979.030146961159 625.235716788478 1980.1506339041848 625.235716788478L1980.1506339041848 625.235716788478Q1986.4066860027447 625.235716788478 1990.795259862928 622.8702443532017Q1995.1527090858058 620.5047719179254 1999.0744133863955 614.5910908297345Q2002.9961176869851 608.6462851042374 2007.6959379202312 597.4414156739812L2007.6959379202312 597.4414156739812L2054.9742619884514 485.8284662937059Q2055.441131548046 485.17484891027425 2056.5616184910714 485.17484891027425Q2057.682105434097 485.17484891027425 2057.8999778952407 485.8284662937059L2057.8999778952407 485.8284662937059L2110.7807366785896 597.2235432128373Q2118.406272818625 613.7818502597715 2123.7908350726093 619.5087835241247Q2129.1753973265936 625.235716788478 2136.5519363681788 625.235716788478L2136.5519363681788 625.235716788478ZM2164.128365021532 603.479595311397L2164.128365021532 493.01825751145367L2169.263930177066 493.4540024337414L2169.263930177066 603.479595311397Q2169.263930177066 615.1513343012473 2173.434631576106 620.1935255448627Q2177.5742083378395 625.235716788478 2186.755976343188 625.235716788478L2186.755976343188 625.235716788478Q2187.4407183639264 625.235716788478 2187.4407183639264 626.5740761926476Q2187.4407183639264 627.912435596817 2186.755976343188 627.912435596817L2186.755976343188 627.912435596817Q2181.1535416280603 627.912435596817 2178.227825721271 627.6945631356732L2178.227825721271 627.6945631356732L2167.022956291015 627.4766906745293L2155.6002143996147 627.6945631356732Q2152.4566260316815 627.912435596817 2146.4184463942656 627.912435596817L2146.4184463942656 627.912435596817Q2145.982701471978 627.912435596817 2145.982701471978 626.5740761926476Q2145.982701471978 625.235716788478 2146.4184463942656 625.235716788478L2146.4184463942656 625.235716788478Q2156.0670839592085 625.235716788478 2160.0821621717173 620.1935255448627Q2164.128365021532 615.1513343012473 2164.128365021532 603.479595311397L2164.128365021532 603.479595311397ZM2277.0796738059767 630.589154405156Q2277.0796738059767 631.05602396475 2275.959186862951 631.2738964258939Q2274.8386999199256 631.4917688870378 2274.3718303603314 631.05602396475L2274.3718303603314 631.05602396475L2171.2870316019735 506.21510372931107Q2164.128365021532 497.50020528355617 2158.1835592960347 494.01424590525426Q2152.238753570538 490.52828652695223 2146.4184463942656 490.52828652695223L2146.4184463942656 490.52828652695223Q2145.733704373528 490.52828652695223 2145.733704373528 489.18992712278276Q2145.733704373528 487.8515677186133 2146.4184463942656 487.8515677186133L2146.4184463942656 487.8515677186133L2154.697599917733 488.0694401797571Q2157.4054433633783 488.287312640901 2162.1052635966244 488.287312640901L2162.1052635966244 488.287312640901Q2167.022956291015 488.287312640901 2170.1665446589477 488.0694401797571Q2173.310133026881 487.8515677186133 2175.1153619906445 487.8515677186133L2175.1153619906445 487.8515677186133Q2176.671593855958 487.8515677186133 2177.667582249758 488.62968365126994Q2178.694695280865 489.40779958392665 2180.0330546850346 491.89777056842803L2180.0330546850346 491.89777056842803Q2182.7097734933736 495.91284878093654 2185.635489400163 499.49218207115734L2185.635489400163 499.49218207115734L2275.274444842213 609.5488995861192L2277.0796738059767 630.589154405156ZM2277.0796738059767 512.5022804651771L2277.0796738059767 630.589154405156L2271.9129840131363 623.6483602858584L2271.9129840131363 512.5022804651771Q2271.9129840131363 500.8616661126331 2267.991279712546 495.69497631979266Q2264.069575411957 490.52828652695223 2254.887807406608 490.52828652695223L2254.887807406608 490.52828652695223Q2254.420937847014 490.52828652695223 2254.420937847014 489.18992712278276Q2254.420937847014 487.8515677186133 2254.887807406608 487.8515677186133L2254.887807406608 487.8515677186133L2263.633830489669 488.0694401797571Q2270.356752147823 488.53630973935117 2274.5897028214754 488.53630973935117L2274.5897028214754 488.53630973935117Q2278.63590567129 488.53630973935117 2285.7945722517316 488.0694401797571L2285.7945722517316 488.0694401797571L2295.007464894387 487.8515677186133Q2295.6610822778184 487.8515677186133 2295.6610822778184 489.18992712278276Q2295.6610822778184 490.52828652695223 2295.007464894387 490.52828652695223L2295.007464894387 490.52828652695223Q2285.576699790588 490.52828652695223 2281.312624479629 495.69497631979266Q2277.0796738059767 500.8616661126331 2277.0796738059767 512.5022804651771L2277.0796738059767 512.5022804651771ZM2327.0347166825363 603.479595311397L2327.0347166825363 493.01825751145367L2332.201406475376 493.4540024337414L2332.201406475376 603.479595311397Q2332.201406475376 615.1513343012473 2336.3409832371103 620.1935255448627Q2340.4805599988435 625.235716788478 2349.662328004192 625.235716788478L2349.662328004192 625.235716788478Q2350.3470700249304 625.235716788478 2350.3470700249304 626.5740761926476Q2350.3470700249304 627.912435596817 2349.662328004192 627.912435596817L2349.662328004192 627.912435596817Q2344.0598932890643 627.912435596817 2341.1653020195818 627.6945631356732L2341.1653020195818 627.6945631356732L2329.960432589325 627.4766906745293L2318.537690697925 627.6945631356732Q2315.394102329992 627.912435596817 2309.32479805527 627.912435596817L2309.32479805527 627.912435596817Q2308.889053132982 627.912435596817 2308.889053132982 626.5740761926476Q2308.889053132982 625.235716788478 2309.32479805527 625.235716788478L2309.32479805527 625.235716788478Q2318.9734356202125 625.235716788478 2323.0196384700275 620.1935255448627Q2327.0347166825363 615.1513343012473 2327.0347166825363 603.479595311397L2327.0347166825363 603.479595311397ZM2439.9860254669807 630.589154405156Q2439.9860254669807 631.05602396475 2438.8655385239554 631.2738964258939Q2437.7450515809296 631.4917688870378 2437.3093066586416 631.05602396475L2437.3093066586416 631.05602396475L2334.2245079002837 506.21510372931107Q2327.0347166825363 497.50020528355617 2321.0899109570387 494.01424590525426Q2315.176229868848 490.52828652695223 2309.32479805527 490.52828652695223L2309.32479805527 490.52828652695223Q2308.671180671838 490.52828652695223 2308.671180671838 489.18992712278276Q2308.671180671838 487.8515677186133 2309.32479805527 487.8515677186133L2309.32479805527 487.8515677186133L2317.635076216043 488.0694401797571Q2320.3117950243823 488.287312640901 2325.0116152576284 488.287312640901L2325.0116152576284 488.287312640901Q2329.960432589325 488.287312640901 2333.1040209572584 488.0694401797571Q2336.216484687885 487.8515677186133 2338.0217136516485 487.8515677186133L2338.0217136516485 487.8515677186133Q2339.577945516962 487.8515677186133 2340.605058548069 488.62968365126994Q2341.6010469418693 489.40779958392665 2342.9394063460386 491.89777056842803L2342.9394063460386 491.89777056842803Q2345.6472497916843 495.91284878093654 2348.541841061167 499.49218207115734L2348.541841061167 499.49218207115734L2438.180796503217 609.5488995861192L2439.9860254669807 630.589154405156ZM2439.9860254669807 512.5022804651771L2439.9860254669807 630.589154405156L2434.8193356741403 623.6483602858584L2434.8193356741403 512.5022804651771Q2434.8193356741403 500.8616661126331 2430.8976313735507 495.69497631979266Q2426.975927072961 490.52828652695223 2417.7941590676123 490.52828652695223L2417.7941590676123 490.52828652695223Q2417.3584141453243 490.52828652695223 2417.3584141453243 489.18992712278276Q2417.3584141453243 487.8515677186133 2417.7941590676123 487.8515677186133L2417.7941590676123 487.8515677186133L2426.540182150673 488.0694401797571Q2433.263103808827 488.53630973935117 2437.5271791197856 488.53630973935117L2437.5271791197856 488.53630973935117Q2441.5422573322944 488.53630973935117 2448.732048550042 488.0694401797571L2448.732048550042 488.0694401797571L2457.913816555391 487.8515677186133Q2458.598558576129 487.8515677186133 2458.598558576129 489.18992712278276Q2458.598558576129 490.52828652695223 2457.913816555391 490.52828652695223L2457.913816555391 490.52828652695223Q2448.5141760888982 490.52828652695223 2444.2501007779397 495.69497631979266Q2439.9860254669807 500.8616661126331 2439.9860254669807 512.5022804651771L2439.9860254669807 512.5022804651771ZM2472.698019275868 627.912435596817Q2472.2622743535803 627.912435596817 2472.2622743535803 626.5740761926476Q2472.2622743535803 625.235716788478 2472.698019275868 625.235716788478L2472.698019275868 625.235716788478Q2481.2261698977854 625.235716788478 2485.147874198375 624.1152298454524Q2489.069578498965 622.9947429024268 2490.5324364523594 619.7266559852687Q2491.9641697684474 616.4896937054168 2491.9641697684474 609.7667720472631L2491.9641697684474 609.7667720472631L2491.9641697684474 505.9972312681672Q2491.9641697684474 499.27430961001346 2490.5324364523594 496.1307212420804Q2489.069578498965 493.01825751145367 2485.147874198375 491.773272019203Q2481.2261698977854 490.52828652695223 2472.698019275868 490.52828652695223L2472.698019275868 490.52828652695223Q2472.2622743535803 490.52828652695223 2472.2622743535803 489.18992712278276Q2472.2622743535803 487.8515677186133 2472.698019275868 487.8515677186133L2472.698019275868 487.8515677186133L2562.8038442775123 487.8515677186133Q2564.7958210651136 487.8515677186133 2564.7958210651136 489.87466914352063L2564.7958210651136 489.87466914352063L2565.2626906247074 517.4199731595675Q2565.2626906247074 518.1047151803052 2564.0177051324567 518.2292137295303Q2562.8038442775123 518.3225876414492 2562.8038442775123 517.6689702580175L2562.8038442775123 517.6689702580175Q2562.1191022567746 505.77935880702336 2555.6140530597645 499.18093569809463Q2549.109003862755 492.5513879518596 2538.3710039920925 492.5513879518596L2538.3710039920925 492.5513879518596L2524.7072882146413 492.5513879518596Q2516.8638796134614 492.5513879518596 2513.035549224791 493.7963734441104Q2509.238343473426 495.0102342990548 2507.7754855200315 497.93595020584394Q2506.312627566637 500.8616661126331 2506.312627566637 507.1177182111928L2506.312627566637 507.1177182111928L2506.312627566637 608.8641575653813Q2506.312627566637 614.9023372027972 2507.7754855200315 617.9525516588114Q2509.238343473426 620.9716414775194 2512.817676763647 622.092128420545Q2516.3970100538672 623.2126153635706 2524.022546193903 623.2126153635706L2524.022546193903 623.2126153635706L2541.9503372823133 623.2126153635706Q2552.719461790282 623.2126153635706 2559.878128370723 615.587079223535Q2567.0367949511647 607.9615430834996 2569.5267659356664 594.515699767192L2569.5267659356664 594.515699767192Q2569.5267659356664 594.0799548449043 2570.3982557802415 594.0799548449043L2570.3982557802415 594.0799548449043Q2571.0829978009797 594.0799548449043 2571.643241272492 594.4223258552731Q2572.2034847440054 594.7335722283359 2572.2034847440054 594.982569326786L2572.2034847440054 594.982569326786Q2570.1803833190975 609.0820300265252 2570.1803833190975 624.5509747677402L2570.1803833190975 624.5509747677402Q2570.1803833190975 626.3562037315037 2569.402267386441 627.1343196641603Q2568.624151453784 627.912435596817 2566.601050028877 627.912435596817L2566.601050028877 627.912435596817L2472.698019275868 627.912435596817ZM2554.057821194451 575.6852941969001Q2554.057821194451 565.8499088081196 2549.2335024119798 561.585833497161Q2544.4091836295083 557.3217581862023 2533.2043141992517 557.3217581862023L2533.2043141992517 557.3217581862023L2499.589705908483 557.3217581862023L2499.589705908483 552.6219379529559L2533.88905621999 552.6219379529559Q2544.6270560906523 552.6219379529559 2549.2335024119798 549.0426046627351Q2553.839948733307 545.4321467352081 2553.839948733307 536.9351207505971L2553.839948733307 536.9351207505971Q2553.839948733307 536.4682511910031 2555.178308137477 536.4682511910031Q2556.5166675416463 536.4682511910031 2556.5166675416463 536.9351207505971L2556.5166675416463 536.9351207505971L2556.2987950805027 555.0807843001511Q2556.2987950805027 561.585833497161 2556.5166675416463 564.9472943262379L2556.5166675416463 564.9472943262379L2556.7345400027903 575.6852941969001Q2556.7345400027903 576.1521637564942 2555.3961805986205 576.1521637564942Q2554.057821194451 576.1521637564942 2554.057821194451 575.6852941969001L2554.057821194451 575.6852941969001Z " fill="#d8990b" transform="matrix(0.3401752841078036,0,0,0.3401752841078036,0,110.74466096400043)"/></g></svg>